<mxfile host="app.diagrams.net" agent="Mozilla/5.0 (Windows NT 10.0; Win64; x64) AppleWebKit/537.36 (KHTML, like Gecko) Chrome/137.0.0.0 Safari/537.36" version="27.1.3">
  <diagram name="PÃ¡gina-1" id="dXRnyDjjoyO5K_vUYhsi">
    <mxGraphModel dx="2492" dy="777" grid="1" gridSize="10" guides="1" tooltips="1" connect="1" arrows="1" fold="1" page="1" pageScale="1" pageWidth="827" pageHeight="1169" math="0" shadow="0">
      <root>
        <mxCell id="0" />
        <mxCell id="1" parent="0" />
        <mxCell id="j8aLxKNk3ZjQeBgPpge--160" value="frame" style="shape=umlFrame;whiteSpace=wrap;html=1;pointerEvents=0;" parent="1" vertex="1">
          <mxGeometry x="-740" y="230" width="650" height="910" as="geometry" />
        </mxCell>
        <mxCell id="j8aLxKNk3ZjQeBgPpge--161" value="Aspirante" style="shape=umlActor;verticalLabelPosition=bottom;verticalAlign=top;html=1;outlineConnect=0;" parent="1" vertex="1">
          <mxGeometry x="-700" y="750" width="30" height="60" as="geometry" />
        </mxCell>
        <mxCell id="j8aLxKNk3ZjQeBgPpge--162" value="CU01-Obtener datos Certificado" style="ellipse;whiteSpace=wrap;html=1;" parent="1" vertex="1">
          <mxGeometry x="-320" y="370" width="120" height="80" as="geometry" />
        </mxCell>
        <mxCell id="j8aLxKNk3ZjQeBgPpge--163" value="CU03-Solicitar queja" style="ellipse;whiteSpace=wrap;html=1;" parent="1" vertex="1">
          <mxGeometry x="-320" y="470" width="120" height="80" as="geometry" />
        </mxCell>
        <mxCell id="j8aLxKNk3ZjQeBgPpge--165" value="CU-4-Obtener paz y salvos" style="ellipse;whiteSpace=wrap;html=1;" parent="1" vertex="1">
          <mxGeometry x="-320" y="850" width="120" height="70" as="geometry" />
        </mxCell>
        <mxCell id="j8aLxKNk3ZjQeBgPpge--171" value="CU-4-Generar paz y salvos" style="ellipse;whiteSpace=wrap;html=1;" parent="1" vertex="1">
          <mxGeometry x="-320" y="1040" width="120" height="70" as="geometry" />
        </mxCell>
        <mxCell id="j8aLxKNk3ZjQeBgPpge--178" value="CU03-Obtener sistema de gestion" style="ellipse;whiteSpace=wrap;html=1;" parent="1" vertex="1">
          <mxGeometry x="-320" y="560" width="120" height="80" as="geometry" />
        </mxCell>
        <mxCell id="j8aLxKNk3ZjQeBgPpge--179" value="CU03-Guardar sistema de gestion" style="ellipse;whiteSpace=wrap;html=1;" parent="1" vertex="1">
          <mxGeometry x="-320" y="650" width="120" height="80" as="geometry" />
        </mxCell>
        <mxCell id="j8aLxKNk3ZjQeBgPpge--184" value="" style="endArrow=classic;html=1;rounded=0;entryX=0;entryY=0.5;entryDx=0;entryDy=0;exitX=0.5;exitY=0;exitDx=0;exitDy=0;exitPerimeter=0;" parent="1" target="j8aLxKNk3ZjQeBgPpge--162" edge="1" source="j8aLxKNk3ZjQeBgPpge--161">
          <mxGeometry width="50" height="50" relative="1" as="geometry">
            <mxPoint x="-550" y="1470" as="sourcePoint" />
            <mxPoint x="500" y="1240" as="targetPoint" />
          </mxGeometry>
        </mxCell>
        <mxCell id="j8aLxKNk3ZjQeBgPpge--185" value="" style="endArrow=classic;html=1;rounded=0;entryX=0;entryY=0.5;entryDx=0;entryDy=0;" parent="1" target="j8aLxKNk3ZjQeBgPpge--163" edge="1" source="j8aLxKNk3ZjQeBgPpge--161">
          <mxGeometry width="50" height="50" relative="1" as="geometry">
            <mxPoint x="-540" y="1470" as="sourcePoint" />
            <mxPoint x="500" y="1240" as="targetPoint" />
          </mxGeometry>
        </mxCell>
        <mxCell id="j8aLxKNk3ZjQeBgPpge--186" value="" style="endArrow=classic;html=1;rounded=0;entryX=0;entryY=0.5;entryDx=0;entryDy=0;" parent="1" target="j8aLxKNk3ZjQeBgPpge--178" edge="1" source="j8aLxKNk3ZjQeBgPpge--161">
          <mxGeometry width="50" height="50" relative="1" as="geometry">
            <mxPoint x="-540" y="1480" as="sourcePoint" />
            <mxPoint x="500" y="1240" as="targetPoint" />
          </mxGeometry>
        </mxCell>
        <mxCell id="j8aLxKNk3ZjQeBgPpge--187" value="" style="endArrow=classic;html=1;rounded=0;entryX=-0.024;entryY=0.571;entryDx=0;entryDy=0;entryPerimeter=0;exitX=1;exitY=0.3333333333333333;exitDx=0;exitDy=0;exitPerimeter=0;" parent="1" target="j8aLxKNk3ZjQeBgPpge--179" edge="1" source="j8aLxKNk3ZjQeBgPpge--161">
          <mxGeometry width="50" height="50" relative="1" as="geometry">
            <mxPoint x="-540" y="1490" as="sourcePoint" />
            <mxPoint x="-30" y="1290" as="targetPoint" />
          </mxGeometry>
        </mxCell>
        <mxCell id="j8aLxKNk3ZjQeBgPpge--188" value="" style="endArrow=classic;html=1;rounded=0;entryX=0;entryY=0.5;entryDx=0;entryDy=0;" parent="1" target="j8aLxKNk3ZjQeBgPpge--164" edge="1" source="j8aLxKNk3ZjQeBgPpge--161">
          <mxGeometry width="50" height="50" relative="1" as="geometry">
            <mxPoint x="-540" y="1500" as="sourcePoint" />
            <mxPoint x="-30" y="1290" as="targetPoint" />
          </mxGeometry>
        </mxCell>
        <mxCell id="j8aLxKNk3ZjQeBgPpge--189" value="" style="endArrow=classic;html=1;rounded=0;entryX=0;entryY=0.5;entryDx=0;entryDy=0;" parent="1" target="j8aLxKNk3ZjQeBgPpge--165" edge="1" source="j8aLxKNk3ZjQeBgPpge--161">
          <mxGeometry width="50" height="50" relative="1" as="geometry">
            <mxPoint x="-540" y="1510" as="sourcePoint" />
            <mxPoint x="-30" y="1290" as="targetPoint" />
          </mxGeometry>
        </mxCell>
        <mxCell id="j8aLxKNk3ZjQeBgPpge--190" value="" style="endArrow=classic;html=1;rounded=0;entryX=0;entryY=0.5;entryDx=0;entryDy=0;" parent="1" target="j8aLxKNk3ZjQeBgPpge--167" edge="1" source="j8aLxKNk3ZjQeBgPpge--161">
          <mxGeometry width="50" height="50" relative="1" as="geometry">
            <mxPoint x="-540" y="1520" as="sourcePoint" />
            <mxPoint x="-30" y="1290" as="targetPoint" />
          </mxGeometry>
        </mxCell>
        <mxCell id="0Zzp2q72GPkHetHksS8z-5" value="" style="endArrow=classic;html=1;rounded=0;entryX=0;entryY=0.5;entryDx=0;entryDy=0;" edge="1" parent="1" source="j8aLxKNk3ZjQeBgPpge--161" target="j8aLxKNk3ZjQeBgPpge--164">
          <mxGeometry width="50" height="50" relative="1" as="geometry">
            <mxPoint x="-670" y="789" as="sourcePoint" />
            <mxPoint x="-60" y="1165" as="targetPoint" />
          </mxGeometry>
        </mxCell>
        <mxCell id="j8aLxKNk3ZjQeBgPpge--164" value="CU-4-Buscar evaluacion por id" style="ellipse;whiteSpace=wrap;html=1;" parent="1" vertex="1">
          <mxGeometry x="-320" y="750" width="120" height="80" as="geometry" />
        </mxCell>
        <mxCell id="0Zzp2q72GPkHetHksS8z-6" value="" style="endArrow=classic;html=1;rounded=0;entryX=0;entryY=0.5;entryDx=0;entryDy=0;" edge="1" parent="1" source="j8aLxKNk3ZjQeBgPpge--161" target="j8aLxKNk3ZjQeBgPpge--171">
          <mxGeometry width="50" height="50" relative="1" as="geometry">
            <mxPoint x="-670" y="795" as="sourcePoint" />
            <mxPoint x="-52" y="1404" as="targetPoint" />
          </mxGeometry>
        </mxCell>
        <mxCell id="j8aLxKNk3ZjQeBgPpge--167" value="CU-4-Obtener mi paz y salvo" style="ellipse;whiteSpace=wrap;html=1;" parent="1" vertex="1">
          <mxGeometry x="-320" y="940" width="120" height="70" as="geometry" />
        </mxCell>
      </root>
    </mxGraphModel>
  </diagram>
</mxfile>
